#!OML:ASF I:\Actors\actors\Patient Classification 2\Patient 1\Session 1\actor1.ASF
:FULLY-SPECIFIED
:DEGREES
950
root -0.631399 18.6527 6.15141 2.12696 -3.50067 -1.71673
lowerback 2.38001 1.0428 -0.501989
upperback -1.84917 1.42176 1.62721
thorax -3.28936 0.740313 1.88137
lowerneck -14.4161 -1.30818 -2.20765
upperneck 21.353 -1.44685 0.677382
head 9.10433 -0.783574 0.426927
rclavicle -1.74309e-014 2.5842e-015
rhumerus -56.1296 -7.73938 -78.2736
rradius 46.2854
rwrist 8.76985
rhand -8.71052 -44.2932
rfingers 7.12502
rthumb 17.2251 -793.55
lclavicle -1.74309e-014 2.5842e-015
lhumerus -44.9655 0.193925 88.8505
lradius 38.4636
lwrist 1.30185
lhand -6.89039 -21.092
lfingers 7.12502
lthumb 18.9762 8.00232
rfemur 0 0 0
rtibia 0
rfoot 0 0
rtoes 0
lfemur -2.15524 -8.15423 -13.4233
ltibia 20.9164
lfoot -25.6891 16.8917
ltoes -54.3615
951
root -0.63258 18.652 6.14896 2.0518 -3.52032 -1.6882
lowerback 2.50752 1.04703 -0.514593
upperback -1.82196 1.42713 1.62961
thorax -3.33384 0.743341 1.88861
lowerneck -14.4304 -1.27538 -2.20563
upperneck 21.2823 -1.39801 0.665496
head 9.08168 -0.76154 0.428391
rclavicle -8.9919e-015 1.86858e-014
rhumerus -56.1577 -7.75322 -78.335
rradius 46.3672
rwrist 8.66501
rhand -8.65179 -44.2094
rfingers 7.12502
rthumb 17.2816 -793.461
lclavicle -8.9919e-015 1.86858e-014
lhumerus -44.9644 -0.0148116 89.0719
lradius 38.5858
lwrist 1.3128
lhand -6.5173 -21.2382
lfingers 7.12502
lthumb 19.335 7.82059
rfemur 0 0 0
rtibia 0
rfoot 0 0
rtoes 0
lfemur -2.07738 -8.13202 -13.462
ltibia 20.909
lfoot -25.6593 16.8843
ltoes -54.3605
952
root -0.634446 18.6517 6.14602 2.0003 -3.5092 -1.67927
lowerback 2.6304 1.04011 -0.521352
upperback -1.82062 1.41822 1.63479
thorax -3.40185 0.739431 1.89609
lowerneck -14.3847 -1.25113 -2.15053
upperneck 21.1752 -1.3647 0.607397
head 9.03487 -0.747568 0.403673
rclavicle 1.86361e-016 1.78906e-014
rhumerus -56.191 -7.73719 -78.4397
rradius 46.4799
rwrist 8.57619
rhand -8.5573 -44.2146
rfingers 7.12502
rthumb 17.3725 -793.458
lclavicle 1.86361e-016 1.78906e-014
lhumerus -44.9806 -0.279416 89.3072
lradius 38.7616
lwrist 1.43125
lhand -6.3009 -21.3963
lfingers 7.12502
lthumb 19.5431 7.64149
rfemur 0 0 0
rtibia 0
rfoot 0 0
rtoes 0
lfemur -2.03673 -8.13805 -13.4715
ltibia 20.903
lfoot -25.6367 16.8946
ltoes -54.3894
953
root -0.637247 18.6521 6.14338 1.97295 -3.49333 -1.6823
lowerback 2.71967 1.02155 -0.545436
upperback -1.83672 1.39375 1.66003
thorax -3.46928 0.728567 1.93541
lowerneck -14.2817 -1.2212 -2.10361
upperneck 21.07 -1.31982 0.535667
head 8.97803 -0.730444 0.377379
rclavicle 2.18974e-015 -7.7526e-015
rhumerus -56.2077 -7.66505 -78.5792
rradius 46.6415
rwrist 8.54752
rhand -8.11632 -44.6051
rfingers 7.12502
rthumb 17.7969 -793.811
lclavicle 2.18974e-015 -7.7526e-015
lhumerus -44.9988 -0.461768 89.5176
lradius 38.9764
lwrist 1.5907
lhand -6.12639 -21.5298
lfingers 7.12502
lthumb 19.7109 7.4909
rfemur 0 0 0
rtibia 0
rfoot 0 0
rtoes 0
lfemur -2.0298 -8.13356 -13.4575
ltibia 20.9115
lfoot -25.609 16.9009
ltoes -54.4229
954
root -0.640566 18.6524 6.14223 1.96454 -3.4973 -1.70445
lowerback 2.74953 1.00626 -0.558959
upperback -1.84479 1.37408 1.69454
thorax -3.49498 0.719729 1.97921
lowerneck -14.1959 -1.20172 -2.14566
upperneck 20.9891 -1.29392 0.576673
head 8.93457 -0.717149 0.401934
rclavicle -2.29814e-014 -1.68967e-014
rhumerus -56.1639 -7.60434 -78.7229
rradius 46.8042
rwrist 8.6193
rhand -7.33392 -45.2452
rfingers 7.12502
rthumb 18.5496 -794.381
lclavicle -2.29814e-014 -1.68967e-014
lhumerus -44.9744 -0.525444 89.6722
lradius 39.1935
lwrist 1.73706
lhand -5.97979 -21.6339
lfingers 7.12502
lthumb 19.8518 7.37225
rfemur 0 0 0
rtibia 0
rfoot 0 0
rtoes 0
lfemur -2.03529 -8.06912 -13.4148
ltibia 20.9253
lfoot -25.5456 16.8972
ltoes -54.4995
955
root -0.644488 18.6517 6.14105 1.9497 -3.51293 -1.72427
lowerback 2.78432 1.00396 -0.574538
upperback -1.83812 1.37128 1.72209
thorax -3.50876 0.719106 2.01603
lowerneck -14.1651 -1.19195 -2.20191
upperneck 20.9193 -1.28874 0.669436
head 8.90583 -0.709029 0.443667
rclavicle 9.10061e-016 -3.18055e-015
rhumerus -56.0533 -7.53819 -78.8851
rradius 46.9053
rwrist 8.57162
rhand -6.96664 -45.4388
rfingers 7.12502
rthumb 18.9029 -794.54
lclavicle 9.10061e-016 -3.18055e-015
lhumerus -44.8946 -0.60796 89.8241
lradius 39.3905
lwrist 1.90377
lhand -5.93714 -21.8137
lfingers 7.12502
lthumb 19.8928 7.18817
rfemur 0 0 0
rtibia 0
rfoot 0 0
rtoes 0
lfemur -2.02934 -7.98222 -13.3716
ltibia 20.9368
lfoot -25.4869 16.85
ltoes -54.5372
956
root -0.649296 18.6519 6.13948 1.95004 -3.51617 -1.71444
lowerback 2.80186 1.00827 -0.625955
upperback -1.82204 1.37532 1.74148
thorax -3.504 0.722486 2.06452
lowerneck -14.1876 -1.19113 -2.22559
upperneck 20.8558 -1.29079 0.711657
head 8.88868 -0.70702 0.461638
rclavicle 4.17137e-015 -6.95746e-015
rhumerus -55.9083 -7.4622 -79.0637
rradius 47.0256
rwrist 8.4291
rhand -6.70827 -45.4269
rfingers 7.12502
rthumb 19.1514 -794.504
lclavicle 4.17137e-015 -6.95746e-015
lhumerus -44.7539 -0.742777 89.9977
lradius 39.5463
lwrist 2.09178
lhand -5.98846 -22.0409
lfingers 7.12502
lthumb 19.8434 6.96613
rfemur 0 0 0
rtibia 0
rfoot 0 0
rtoes 0
lfemur -2.04309 -7.95674 -13.36
ltibia 20.9487
lfoot -25.4704 16.81
ltoes -54.529
957
root -0.653753 18.6526 6.13884 1.95423 -3.4999 -1.71905
lowerback 2.78139 1.00554 -0.653319
upperback -1.79298 1.37077 1.76284
thorax -3.46344 0.720726 2.10277
lowerneck -14.2278 -1.19221 -2.18662
upperneck 20.8043 -1.28816 0.658414
head 8.87775 -0.708117 0.43718
rclavicle 1.53033e-014 2.78299e-015
rhumerus -55.7427 -7.38242 -79.2657
rradius 47.2118
rwrist 8.28657
rhand -6.36491 -45.5869
rfingers 7.12502
rthumb 19.4815 -794.631
lclavicle 1.53033e-014 2.78299e-015
lhumerus -44.5974 -0.87805 90.1699
lradius 39.7604
lwrist 2.29201
lhand -6.07372 -22.1158
lfingers 7.12502
lthumb 19.7615 6.89961
rfemur 0 0 0
rtibia 0
rfoot 0 0
rtoes 0
lfemur -2.06108 -7.99521 -13.3402
ltibia 20.963
lfoot -25.4889 16.8415
ltoes -54.5237
958
root -0.658633 18.6528 6.13806 1.94482 -3.48197 -1.77125
lowerback 2.77369 0.991344 -0.636709
upperback -1.77086 1.35317 1.79279
thorax -3.43584 0.711625 2.12567
lowerneck -14.2059 -1.1778 -2.11701
upperneck 20.7377 -1.2677 0.582361
head 8.84954 -0.700989 0.402297
rclavicle -2.83268e-015 -1.76918e-014
rhumerus -55.5995 -7.26158 -79.5168
rradius 47.4274
rwrist 8.07144
rhand -6.43133 -45.6846
rfingers 7.12502
rthumb 19.4177 -794.735
lclavicle -2.83268e-015 -1.76918e-014
lhumerus -44.4486 -0.962184 90.2885
lradius 40.0168
lwrist 2.46605
lhand -6.11809 -22.0969
lfingers 7.12502
lthumb 19.7188 6.92292
rfemur 0 0 0
rtibia 0
rfoot 0 0
rtoes 0
lfemur -2.06266 -8.00071 -13.2647
ltibia 20.9799
lfoot -25.4989 16.8483
ltoes -54.5266
959
root -0.664893 18.6535 6.13709 1.95271 -3.48066 -1.8188
lowerback 2.78164 0.977697 -0.638669
upperback -1.78133 1.33571 1.81438
thorax -3.45103 0.703417 2.14989
lowerneck -14.1242 -1.16266 -2.08786
upperneck 20.6534 -1.2488 0.553746
head 8.80496 -0.692784 0.390401
rclavicle 1.26508e-014 1.25234e-014
rhumerus -55.476 -7.13021 -79.7911
rradius 47.5945
rwrist 7.89888
rhand -6.61027 -45.6193
rfingers 7.12502
rthumb 19.2456 -794.687
lclavicle 1.26508e-014 1.25234e-014
lhumerus -44.3193 -1.07885 90.4113
lradius 40.4386
lwrist 2.46827
lhand -6.06436 -21.1585
lfingers 7.12502
lthumb 19.7705 7.85607
rfemur 0 0 0
rtibia 0
rfoot 0 0
rtoes 0
lfemur -2.07959 -7.93215 -13.1816
ltibia 20.9933
lfoot -25.4554 16.8086
ltoes -54.5927
960
root -0.670724 18.6545 6.13748 1.96958 -3.47616 -1.8476
lowerback 2.77173 0.974331 -0.632064
upperback -1.80186 1.33176 1.81504
thorax -3.46634 0.701539 2.14711
lowerneck -14.0512 -1.16419 -2.08929
upperneck 20.5887 -1.25417 0.562729
head 8.76958 -0.694408 0.393453
rclavicle -7.27117e-015 -7.55382e-015
rhumerus -55.3355 -7.05489 -80.0515
rradius 47.7025
rwrist 7.79725
rhand -6.6182 -45.4255
rfingers 7.12502
rthumb 19.238 -794.494
lclavicle -7.27117e-015 -7.55382e-015
lhumerus -44.1784 -1.1802 90.4818
lradius 40.4981
lwrist 2.79969
lhand -6.28603 -21.7018
lfingers 7.12502
lthumb 19.5574 7.33453
rfemur 0 0 0
rtibia 0
rfoot 0 0
rtoes 0
lfemur -2.09705 -7.87845 -13.1206
ltibia 20.9997
lfoot -25.4003 16.7701
ltoes -54.6571
961
root -0.675005 18.6547 6.13867 1.97905 -3.4619 -1.84959
lowerback 2.74713 0.981012 -0.618676
upperback -1.80956 1.34066 1.79601
thorax -3.45997 0.705426 2.11976
lowerneck -14.029 -1.18455 -2.10667
upperneck 20.5649 -1.28706 0.599186
head 8.75822 -0.707313 0.404986
rclavicle 1.61202e-014 5.36719e-015
rhumerus -55.1958 -6.99256 -80.3136
rradius 47.8454
rwrist 7.61603
rhand -6.61067 -45.1694
rfingers 7.12502
rthumb 19.2452 -794.237
lclavicle 1.61202e-014 5.36719e-015
lhumerus -44.0312 -1.33648 90.5566
lradius 40.5515
lwrist 3.21053
lhand -6.47848 -22.3803
lfingers 7.12502
lthumb 19.3723 6.6747
rfemur 0 0 0
rtibia 0
rfoot 0 0
rtoes 0
lfemur -2.10707 -7.85772 -13.0973
ltibia 21.0037
lfoot -25.3495 16.7397
ltoes -54.6911
962
root -0.679154 18.655 6.13903 1.98974 -3.43295 -1.84572
lowerback 2.74007 0.981916 -0.618301
upperback -1.82035 1.34169 1.78614
thorax -3.46691 0.70592 2.10933
lowerneck -14.0028 -1.20672 -2.15457
upperneck 20.5436 -1.31719 0.643828
head 8.74725 -0.72046 0.424721
rclavicle -1.11816e-014 -4.57205e-015
rhumerus -55.069 -6.87347 -80.5779
rradius 48.0335
rwrist 7.34509
rhand -6.75499 -44.9516
rfingers 7.12502
rthumb 19.1064 -794.033
lclavicle -1.11816e-014 -4.57205e-015
lhumerus -43.8491 -1.45423 90.6258
lradius 40.668
lwrist 3.46655
lhand -6.5475 -22.5376
lfingers 7.12502
lthumb 19.306 6.52406
rfemur 0 0 0
rtibia 0
rfoot 0 0
rtoes 0
lfemur -2.13463 -7.76469 -13.0673
ltibia 21.0048
lfoot -25.2475 16.6734
ltoes -54.7735
963
root -0.683725 18.6557 6.13883 1.99553 -3.389 -1.87739
lowerback 2.71805 0.960132 -0.617682
upperback -1.82083 1.31342 1.81346
thorax -3.45445 0.692112 2.13919
lowerneck -13.9364 -1.19926 -2.16907
upperneck 20.4975 -1.29902 0.618138
head 8.71904 -0.715772 0.420914
rclavicle -4.70871e-015 -7.55382e-015
rhumerus -54.9358 -6.66897 -80.8491
rradius 48.2821
rwrist 7.03513
rhand -6.81877 -45.0008
rfingers 7.12502
rthumb 19.0451 -794.088
lclavicle -4.70871e-015 -7.55382e-015
lhumerus -43.6587 -1.47289 90.7085
lradius 40.9
lwrist 3.49185
lhand -6.58864 -22.1327
lfingers 7.12502
lthumb 19.2664 6.93297
rfemur 0 0 0
rtibia 0
rfoot 0 0
rtoes 0
lfemur -2.15214 -7.66988 -12.9913
ltibia 20.9981
lfoot -25.1567 16.5804
ltoes -54.8303
964
root -0.688141 18.6562 6.13891 1.98075 -3.36781 -1.89866
lowerback 2.69386 0.927417 -0.63988
upperback -1.80878 1.26946 1.84206
thorax -3.42766 0.670855 2.18418
lowerneck -13.8588 -1.16746 -2.15229
upperneck 20.4489 -1.2477 0.560975
head 8.68702 -0.696384 0.405142
rclavicle -1.216e-014 -3.18055e-015
rhumerus -54.8115 -6.38264 -81.1623
rradius 48.5861
rwrist 6.7503
rhand -6.70587 -45.1656
rfingers 7.12502
rthumb 19.1537 -794.242
lclavicle -1.216e-014 -3.18055e-015
lhumerus -43.5302 -1.45815 90.7809
lradius 41.3096
lwrist 3.37587
lhand -6.59227 -21.2512
lfingers 7.12502
lthumb 19.2629 7.81482
rfemur 0 0 0
rtibia 0
rfoot 0 0
rtoes 0
lfemur -2.1291 -7.6765 -12.949
ltibia 20.9889
lfoot -25.1407 16.5641
ltoes -54.8281
965
root -0.692889 18.656 6.13912 1.94738 -3.36397 -1.88046
lowerback 2.72253 0.908812 -0.665694
upperback -1.8142 1.24317 1.82578
thorax -3.44849 0.658316 2.18296
lowerneck -13.7881 -1.15316 -2.16509
upperneck 20.4307 -1.23158 0.58309
head 8.66783 -0.687587 0.416945
rclavicle -8.0601e-015 -5.1684e-015
rhumerus -54.7068 -6.2017 -81.4011
rradius 48.7832
rwrist 6.74463
rhand -6.86663 -44.8569
rfingers 7.12502
rthumb 18.9991 -793.949
lclavicle -8.0601e-015 -5.1684e-015
lhumerus -43.4347 -1.51825 90.8071
lradius 41.6092
lwrist 3.41869
lhand -6.68253 -20.8205
lfingers 7.12502
lthumb 19.1761 8.2541
rfemur 0 0 0
rtibia 0
rfoot 0 0
rtoes 0
lfemur -2.08312 -7.69954 -12.9589
ltibia 20.9771
lfoot -25.1439 16.5818
ltoes -54.7801
